<?xml version="1.0" standalone="no"?><!DOCTYPE svg PUBLIC "-//W3C//DTD SVG 1.1//EN" "http://www.w3.org/Graphics/SVG/1.1/DTD/svg11.dtd"><svg class="icon" width="32px" height="32.00px" viewBox="0 0 1024 1024" version="1.1" xmlns="http://www.w3.org/2000/svg"><path fill="#00B3D0" d="M897.024 68.608H137.216C101.376 68.608 71.68 97.28 71.68 133.12v760.832c0 35.84 29.696 65.536 65.536 65.536h760.832c35.84 0 65.536-29.696 65.536-65.536V133.12c-1.024-35.84-30.72-64.512-66.56-64.512zM748.544 557.056H560.128v188.416c0 23.552-19.456 43.008-43.008 43.008-23.552 0-43.008-19.456-43.008-43.008V557.056H285.696c-23.552 0-43.008-19.456-43.008-43.008 0-23.552 19.456-43.008 43.008-43.008h188.416V281.6c0-23.552 19.456-43.008 43.008-43.008 23.552 0 43.008 19.456 43.008 43.008v188.416h188.416c23.552 0 43.008 19.456 43.008 43.008 1.024 24.576-18.432 44.032-43.008 44.032z"  /></svg>