<?xml version="1.0" standalone="no"?><!DOCTYPE svg PUBLIC "-//W3C//DTD SVG 1.1//EN" "http://www.w3.org/Graphics/SVG/1.1/DTD/svg11.dtd"><svg class="icon" width="32px" height="32.00px" viewBox="0 0 1024 1024" version="1.1" xmlns="http://www.w3.org/2000/svg"><path fill="#ffffff" d="M511.552304 23.12979c-268.829701 0-488.785276 219.956597-488.785276 488.786299s219.956597 488.785276 488.785276 488.785275c268.829701 0 488.786299-219.954551 488.786298-488.785275S780.382005 23.12979 511.552304 23.12979zM120.514259 511.917112c0-215.07031 175.968757-391.039068 391.039068-391.039067 87.992053 0 171.083493 29.331026 239.516072 83.090416L203.603653 751.433184c-53.758368-68.433602-83.089393-151.524019-83.089394-239.516072z m391.038045 391.039068c-87.992053 0-171.08247-29.348422-239.516073-83.089394l547.464723-547.465746c53.743018 68.433602 83.089393 151.540392 83.089394 239.516072 0.001023 215.086683-175.983083 391.039068-391.038044 391.039068z m0 0" /></svg>